<svg width="252" height="80" viewBox="0 0 252 80" fill="none" xmlns="http://www.w3.org/2000/svg">
<g filter="url(#filter0_i_2_968)">
<rect x="0.666626" width="250.667" height="80" rx="40" fill="white"/>
</g>
<path d="M98.4257 59.251L96.1258 53.3412H86.747L84.5068 59.251H81.3706L89.7936 38.0893H93.1688L101.592 59.251H98.4257ZM91.4065 41.1337L87.7924 50.6251H95.0804L91.4065 41.1337ZM106.92 64.9219H104.142V44.8945H106.86V47.133C107.278 46.3769 107.906 45.76 108.742 45.2825C109.578 44.8049 110.554 44.5662 111.669 44.5662C113.74 44.5662 115.353 45.2725 116.508 46.6853C117.683 48.0981 118.27 49.8889 118.27 52.0578C118.27 54.2466 117.663 56.0573 116.448 57.49C115.253 58.9227 113.63 59.639 111.579 59.639C110.524 59.639 109.588 59.4201 108.772 58.9823C107.955 58.5446 107.338 57.9874 106.92 57.3109V64.9219ZM115.403 52.0578C115.403 50.6052 115.014 49.4113 114.238 48.4761C113.481 47.521 112.456 47.0435 111.161 47.0435C109.887 47.0435 108.851 47.521 108.055 48.4761C107.278 49.4113 106.89 50.6052 106.89 52.0578C106.89 53.5502 107.278 54.7739 108.055 55.729C108.851 56.6642 109.887 57.1318 111.161 57.1318C112.436 57.1318 113.461 56.6642 114.238 55.729C115.014 54.7739 115.403 53.5502 115.403 52.0578ZM124.625 64.9219H121.848V44.8945H124.566V47.133C124.984 46.3769 125.611 45.76 126.447 45.2825C127.284 44.8049 128.259 44.5662 129.375 44.5662C131.445 44.5662 133.058 45.2725 134.213 46.6853C135.388 48.0981 135.976 49.8889 135.976 52.0578C135.976 54.2466 135.368 56.0573 134.154 57.49C132.959 58.9227 131.336 59.639 129.285 59.639C128.23 59.639 127.294 59.4201 126.477 58.9823C125.661 58.5446 125.044 57.9874 124.625 57.3109V64.9219ZM133.108 52.0578C133.108 50.6052 132.72 49.4113 131.943 48.4761C131.187 47.521 130.161 47.0435 128.867 47.0435C127.592 47.0435 126.557 47.521 125.76 48.4761C124.984 49.4113 124.596 50.6052 124.596 52.0578C124.596 53.5502 124.984 54.7739 125.76 55.729C126.557 56.6642 127.592 57.1318 128.867 57.1318C130.141 57.1318 131.167 56.6642 131.943 55.729C132.72 54.7739 133.108 53.5502 133.108 52.0578ZM160.82 42.8947L158.192 43.82C158.053 42.9047 157.605 42.0789 156.848 41.3427C156.091 40.5865 155.046 40.2085 153.712 40.2085C152.537 40.2085 151.561 40.5467 150.784 41.2233C150.007 41.8998 149.619 42.7355 149.619 43.7304C149.619 44.5065 149.848 45.1631 150.306 45.7003C150.784 46.2376 151.462 46.6057 152.338 46.8047L155.504 47.4912C157.256 47.8692 158.61 48.5856 159.566 49.6402C160.522 50.6749 161 51.9384 161 53.4308C161 55.142 160.323 56.6145 158.969 57.8482C157.614 59.0818 155.852 59.6987 153.682 59.6987C151.312 59.6987 149.45 59.0818 148.096 57.8482C146.761 56.5946 145.985 55.1122 145.766 53.4009L148.573 52.5055C148.693 53.779 149.191 54.8535 150.067 55.729C150.944 56.6045 152.139 57.0423 153.652 57.0423C155.046 57.0423 156.121 56.7239 156.878 56.0872C157.634 55.4504 158.013 54.6446 158.013 53.6695C158.013 52.8736 157.744 52.1871 157.206 51.6101C156.669 51.0131 155.882 50.6052 154.847 50.3864L151.83 49.7297C150.256 49.3914 149.002 48.7249 148.066 47.73C147.13 46.735 146.662 45.4715 146.662 43.9394C146.662 42.2679 147.339 40.8054 148.693 39.5518C150.067 38.2783 151.72 37.6416 153.652 37.6416C155.822 37.6416 157.485 38.1689 158.64 39.2235C159.795 40.2781 160.522 41.5018 160.82 42.8947ZM168.198 40.3577V44.8945H171.304V47.4315H168.198V54.8933C168.198 55.5698 168.347 56.0673 168.646 56.3856C168.965 56.704 169.482 56.8632 170.199 56.8632C170.617 56.8632 170.986 56.8234 171.304 56.7438V59.1316C170.826 59.3107 170.189 59.4002 169.393 59.4002C168.158 59.4002 167.182 59.042 166.466 58.3257C165.749 57.6094 165.39 56.6045 165.39 55.3111V47.4315H162.642V44.8945H163.419C164.156 44.8945 164.703 44.6955 165.062 44.2975C165.44 43.8797 165.629 43.3424 165.629 42.6858V40.3577H168.198ZM177.863 55.8484C178.739 56.7438 179.804 57.1915 181.059 57.1915C182.313 57.1915 183.369 56.7438 184.225 55.8484C185.101 54.9331 185.539 53.6695 185.539 52.0578C185.539 50.4659 185.101 49.2223 184.225 48.3269C183.369 47.4116 182.313 46.9539 181.059 46.9539C179.804 46.9539 178.739 47.4116 177.863 48.3269C177.007 49.2223 176.578 50.4659 176.578 52.0578C176.578 53.6695 177.007 54.9331 177.863 55.8484ZM175.772 46.6256C177.166 45.173 178.928 44.4468 181.059 44.4468C183.189 44.4468 184.942 45.173 186.316 46.6256C187.71 48.0583 188.406 49.869 188.406 52.0578C188.406 54.2665 187.719 56.0971 186.346 57.5497C184.972 58.9823 183.209 59.6987 181.059 59.6987C178.908 59.6987 177.146 58.9823 175.772 57.5497C174.398 56.0971 173.711 54.2665 173.711 52.0578C173.711 49.869 174.398 48.0583 175.772 46.6256ZM199.974 44.7452V47.73C199.556 47.6703 199.148 47.6404 198.75 47.6404C196.121 47.6404 194.807 49.1129 194.807 52.0578V59.251H191.999V44.8945H194.747V47.4016C195.623 45.571 197.057 44.6557 199.048 44.6557C199.367 44.6557 199.676 44.6855 199.974 44.7452ZM204.642 50.5953H212.498C212.458 49.5208 212.1 48.6453 211.423 47.9687C210.746 47.2723 209.79 46.9241 208.555 46.9241C207.44 46.9241 206.524 47.2922 205.807 48.0284C205.09 48.7448 204.702 49.6004 204.642 50.5953ZM212.916 54.3262L215.335 55.1619C214.917 56.4951 214.141 57.5895 213.006 58.4451C211.871 59.2808 210.497 59.6987 208.884 59.6987C206.873 59.6987 205.16 59.0122 203.746 57.6392C202.352 56.2464 201.655 54.3759 201.655 52.0279C201.655 49.8392 202.332 48.0284 203.687 46.5958C205.041 45.1631 206.653 44.4468 208.525 44.4468C210.696 44.4468 212.388 45.1332 213.603 46.5062C214.818 47.8593 215.425 49.68 215.425 51.9683C215.425 52.3264 215.405 52.6249 215.365 52.8637H204.553C204.573 54.1372 204.991 55.1818 205.807 55.9976C206.644 56.8134 207.669 57.2214 208.884 57.2214C210.935 57.2214 212.279 56.2563 212.916 54.3262Z" fill="black"/>
<path opacity="0.6" d="M83.5635 25.1058V19.9551H84.8266C86.1465 19.9551 87.2388 20.7851 87.2388 22.5361C87.2388 24.2872 86.1351 25.1058 84.8152 25.1058H83.5635ZM84.8721 26.5612C87.1706 26.5612 88.866 25.0831 88.866 22.5361C88.866 19.9892 87.1819 18.4997 84.8835 18.4997H81.9933V26.5612H84.8721ZM92.7988 22.5248C92.7988 20.7055 94.0733 19.8414 95.3135 19.8414C96.5652 19.8414 97.8396 20.7055 97.8396 22.5248C97.8396 24.344 96.5652 25.2082 95.3135 25.2082C94.0733 25.2082 92.7988 24.344 92.7988 22.5248ZM91.1717 22.5361C91.1717 25.1286 93.1288 26.7318 95.3135 26.7318C97.5096 26.7318 99.4667 25.1286 99.4667 22.5361C99.4667 19.9323 97.5096 18.3291 95.3135 18.3291C93.1288 18.3291 91.1717 19.9323 91.1717 22.5361ZM109.55 24.0711L107.753 18.4997H106.125L104.339 24.0484L102.86 18.4997H101.199L103.44 26.5612H105.079L106.922 20.8192L108.765 26.5612H110.381L112.611 18.4997H111.007L109.55 24.0711ZM121.98 26.5612V18.4997H120.41V23.8324L117.053 18.4997H115.096V26.5612H116.666V20.842L120.33 26.5612H121.98ZM130.407 26.5612V25.0604H126.811V18.4997H125.241V26.5612H130.407ZM133.913 22.5248C133.913 20.7055 135.187 19.8414 136.428 19.8414C137.679 19.8414 138.954 20.7055 138.954 22.5248C138.954 24.344 137.679 25.2082 136.428 25.2082C135.187 25.2082 133.913 24.344 133.913 22.5248ZM132.286 22.5361C132.286 25.1286 134.243 26.7318 136.428 26.7318C138.624 26.7318 140.581 25.1286 140.581 22.5361C140.581 19.9323 138.624 18.3291 136.428 18.3291C134.243 18.3291 132.286 19.9323 132.286 22.5361ZM148.449 26.5612H150.155L147.083 18.4997H145.263L142.168 26.5612H143.829L144.5 24.7192H147.777L148.449 26.5612ZM146.139 20.2393L147.254 23.2866H145.024L146.139 20.2393ZM154.179 25.1058V19.9551H155.442C156.762 19.9551 157.855 20.7851 157.855 22.5361C157.855 24.2872 156.751 25.1058 155.431 25.1058H154.179ZM155.488 26.5612C157.786 26.5612 159.482 25.0831 159.482 22.5361C159.482 19.9892 157.798 18.4997 155.499 18.4997H152.609V26.5612H155.488ZM167.649 22.5248C167.649 20.7055 168.923 19.8414 170.163 19.8414C171.415 19.8414 172.689 20.7055 172.689 22.5248C172.689 24.344 171.415 25.2082 170.163 25.2082C168.923 25.2082 167.649 24.344 167.649 22.5248ZM166.022 22.5361C166.022 25.1286 167.979 26.7318 170.163 26.7318C172.359 26.7318 174.317 25.1286 174.317 22.5361C174.317 19.9323 172.359 18.3291 170.163 18.3291C167.979 18.3291 166.022 19.9323 166.022 22.5361ZM183.984 26.5612V18.4997H182.414V23.8324L179.057 18.4997H177.1V26.5612H178.67V20.842L182.334 26.5612H183.984ZM197.419 19.9892V18.4997H190.74V19.9892H193.289V26.5612H194.871V19.9892H197.419ZM206.615 26.5612V18.4997H205.033V21.7402H201.517V18.4997H199.947V26.5612H201.517V23.2184H205.033V26.5612H206.615ZM214.933 26.5612V25.0831H211.451V23.2184H214.603V21.8198H211.451V19.9778H214.933V18.4997H209.88V26.5612H214.933Z" fill="black"/>
<path d="M62.4046 50.7474C61.4809 52.7914 61.04 53.7037 59.8506 55.5096C58.1936 58.0316 55.8556 61.1726 52.9585 61.1992C50.3851 61.2232 49.7237 59.5256 46.23 59.5461C42.7365 59.5666 42.0084 61.2295 39.4348 61.2055C36.5377 61.1797 34.3243 58.3433 32.6654 55.8196C28.0286 48.7664 27.5442 40.4901 30.4039 36.0903C32.4361 32.9616 35.6435 31.1336 38.658 31.1336C41.7275 31.1336 43.6574 32.8151 46.1963 32.8151C48.6586 32.8151 50.1583 31.1309 53.7079 31.1309C56.3908 31.1309 59.2336 32.5904 61.2596 35.1122C54.6217 38.7463 55.701 48.2148 62.4046 50.7474Z" fill="black"/>
<path d="M51.3876 26.7163C52.6773 25.0622 53.6552 22.7287 53.2996 20.3418C51.1929 20.4858 48.7304 21.8253 47.2921 23.5708C45.9863 25.1547 44.9079 27.5043 45.3275 29.788C47.6255 29.8601 50.0052 28.4875 51.3876 26.7163Z" fill="black"/>
<defs>
<filter id="filter0_i_2_968" x="0.666626" y="0" width="257.333" height="86.6667" filterUnits="userSpaceOnUse" color-interpolation-filters="sRGB">
<feFlood flood-opacity="0" result="BackgroundImageFix"/>
<feBlend mode="normal" in="SourceGraphic" in2="BackgroundImageFix" result="shape"/>
<feColorMatrix in="SourceAlpha" type="matrix" values="0 0 0 0 0 0 0 0 0 0 0 0 0 0 0 0 0 0 127 0" result="hardAlpha"/>
<feOffset dx="6.66667" dy="6.66667"/>
<feGaussianBlur stdDeviation="6.66667"/>
<feComposite in2="hardAlpha" operator="arithmetic" k2="-1" k3="1"/>
<feColorMatrix type="matrix" values="0 0 0 0 0 0 0 0 0 0 0 0 0 0 0 0 0 0 0.1 0"/>
<feBlend mode="normal" in2="shape" result="effect1_innerShadow_2_968"/>
</filter>
</defs>
</svg>
